<svg width="100" height="100" viewBox="0 0 100 100" fill="none" xmlns="http://www.w3.org/2000/svg">
<circle cx="50" cy="50" r="50" fill="#CEE19A"/>
<path fill-rule="evenodd" clip-rule="evenodd" d="M47.9999 20.0002C44.7687 20.3985 41.7805 21.6612 38.9999 23.0002C30.981 26.862 25.1481 34.2387 23.9999 43.0002C23.8973 43.783 23.9999 44.7113 23.9999 45.0002C23.9999 45.5129 23.6769 45.6211 22.9999 46.0002C22.1471 46.4777 21.4787 47.1062 20.9999 48.0002C20.3066 49.2953 19.9999 50.364 19.9999 55.0002C19.9999 57.3196 19.9331 59.6428 19.9999 60.0002C20.3691 61.9761 22.0561 63.3196 23.9999 64.0002C26.9935 65.0482 29.5106 63.7968 29.9999 61.0002C30.1921 59.9017 30.2051 48.6116 29.9999 48.0002C29.5965 46.7982 28.2177 45.2937 26.9999 45.0002V44.0002C27.1036 42.6616 27.4658 40.5527 27.9999 39.0002C30.2714 32.397 35.5007 26.4492 41.9999 24.0002C46.3908 22.3455 50.4057 22.0696 54.9999 23.0002C61.0565 24.2268 66.5387 28.7577 69.9999 34.0002C71.9648 36.9761 73.7496 40.767 73.9999 44.0002V45.0002C72.8012 45.2891 71.3966 46.8176 70.9999 48.0002C70.8928 48.3194 71.0312 49.6654 70.9999 54.0002C70.9554 60.1558 70.589 61.2026 70.9999 62.0002C71.557 63.0812 72.9059 63.7572 73.9999 64.0002V65.0002V66.0002C73.9999 67.9434 74.4856 68.9705 73.9999 70.0002C73.5978 70.8532 71.77 71.5524 70.9999 72.0002C69.7844 72.707 69.9201 73.0075 66.9999 73.0002C65.2544 72.9958 64.0275 73.0813 63.9999 73.0002C63.8647 72.6004 63.468 71.3516 62.9999 71.0002C61.9282 70.1954 61.2013 70.0484 57.9999 70.0002C54.2351 69.9434 53.181 70.8612 51.9999 72.0002C50.1702 73.7648 50.107 76.3113 51.9999 78.0002C53.187 79.059 53.9881 79.0002 57.9999 79.0002C61.4655 79.0002 61.4287 79.2816 61.9999 79.0002C62.8329 78.5895 63.6482 77.7135 63.9999 77.0002V76.0002H66.9999C69.2355 75.9979 69.164 76.199 69.9999 76.0002C73.2568 75.2253 76.1155 73.2074 76.9999 70.0002C77.2104 69.2365 76.9494 67.9008 76.9999 66.0002V64.0002H77.9999C79.0997 63.5121 80.4243 61.4261 80.9999 60.0002C81.2712 59.3281 80.9607 59.4654 80.9999 55.0002C81.0348 51.0457 81.1712 50.6632 80.9999 50.0002C80.5965 48.4392 79.3329 46.7467 77.9999 46.0002C77.3242 45.6217 76.9999 45.5129 76.9999 45.0002C76.9999 44.1212 77.3344 41.4036 76.9999 40.0002C75.1632 32.2955 69.2876 25.4466 61.9999 22.0002C59.7374 20.9303 57.7368 20.4822 54.9999 20.0002C53.9858 19.8216 48.9822 19.879 47.9999 20.0002ZM39.9999 34.0002C39.6703 34.0626 38.4938 34.7737 37.9999 35.0002C36.8581 35.5236 36.4991 35.9417 35.9999 37.0002C35.3265 38.4283 34.959 39.2767 34.9999 47.0002C35.0406 54.68 35.2702 54.5611 35.9999 56.0002C36.3536 56.6976 37.2605 57.5293 37.9999 58.0002C38.7381 58.4701 39.1001 58.9062 39.9999 59.0002H40.9999V61.0002C40.9999 63.1243 41.3297 63.3147 41.9999 64.0002C42.873 64.8928 43.7968 65.3459 44.9999 65.0002C45.6913 64.8014 46.1246 64.8372 48.9999 62.0002L51.9999 59.0002H55.9999C60.7923 59.0002 61.683 58.6332 62.9999 58.0002C64.2875 57.3812 65.433 56.4852 65.9999 55.0002C66.2543 54.3337 65.9624 53.8151 65.9999 47.0002C66.027 42.1063 66.0981 39.5779 65.9999 39.0002C65.6876 37.1605 64.6859 35.8447 62.9999 35.0002C61.5862 34.2921 60.9124 33.9877 49.9999 34.0002C44.3261 34.0067 40.3412 33.9355 39.9999 34.0002ZM39.9999 37.0002C39.24 37.3527 38.3802 38.2104 37.9999 39.0002V46.0002C37.9991 50.8358 37.9026 53.7123 37.9999 54.0002C38.2058 54.6098 38.3969 54.6208 38.9999 55.0002C39.4878 55.3071 40.5822 55.9296 41.9999 56.0002C43.6673 56.0831 43.5902 56.3802 43.9999 57.0002C44.2041 57.309 43.9835 58.019 43.9999 62.0002C44.0003 62.098 45.2757 60.7065 46.9999 59.0002C48.7242 57.2939 50.9695 56.012 50.9999 56.0002C51.0304 55.9885 53.1205 56.0381 55.9999 56.0002H60.9999L61.9999 55.0002C62.7369 54.5178 62.7784 54.6543 62.9999 54.0002C63.1614 53.5234 63.0286 52.0291 62.9999 46.0002C62.9629 38.2244 62.8944 38.9141 61.9999 38.0002C61.077 37.0573 62.5017 37.0338 50.9999 37.0002H39.9999ZM42.9999 45.0002C42.5532 45.1279 41.1822 45.5671 40.9999 46.0002C40.604 46.9403 41.1658 47.3387 41.9999 48.0002C42.4051 48.3213 42.3373 48.9982 42.9999 49.0002C43.9226 49.0028 44.6418 48.7205 44.9999 48.0002C45.8585 46.2732 44.8655 44.4668 42.9999 45.0002ZM49.9999 45.0002C48.405 45.7996 48.405 48.2007 49.9999 49.0002C50.2977 49.1495 50.7609 49.0002 50.9999 49.0002C50.7022 49.1495 51.239 49.0002 50.9999 49.0002C52.5948 48.2007 52.5948 45.7996 50.9999 45.0002C50.7022 44.8509 51.239 44.0002 50.9999 44.0002C50.7609 44.0002 50.2977 44.8509 49.9999 45.0002ZM56.9999 45.0002C55.8531 45.58 55.2994 46.9499 55.9999 48.0002C57.1828 49.774 59.9999 49.1222 59.9999 47.0002C59.9999 45.404 58.4288 44.2778 56.9999 45.0002ZM24.9999 48.0002C23.9506 48.3181 23.4656 49.0061 22.9999 50.0002C22.7572 50.5182 22.9999 50.9708 22.9999 55.0002V59.0002V60.0002C23.4401 60.8623 24.1949 60.7629 24.9999 61.0002C25.9405 61.2773 26.585 61.4119 26.9999 61.0002V55.0002V49.0002V48.0002C26.6471 47.699 25.6222 47.8117 24.9999 48.0002ZM73.9999 48.0002C73.8176 48.1811 73.9999 49.0002 73.9999 49.0002V55.0002V61.0002C73.7371 60.738 73.9999 61.0002 73.9999 61.0002C74.2627 61.2623 74.3713 62.0646 74.9999 62.0002C76.2237 61.8749 77.4191 61.1376 77.9999 60.0002C77.9999 60.0002 77.9258 59.2915 77.9999 59.0002C78.098 58.615 77.9999 55.0002 77.9999 55.0002C77.9999 50.9708 78.2426 50.5182 77.9999 50.0002C77.455 48.8369 76.2324 48.1263 74.9999 48.0002C74.4513 47.944 74.1822 47.8193 73.9999 48.0002ZM54.9999 73.0002C54.5826 73.225 53.9999 74.4415 53.9999 75.0002C53.9999 75.3213 53.6893 75.6636 53.9999 76.0002H54.9999H56.9999C58.7775 76.0251 59.7754 76.0924 59.9999 76.0002C61.1428 75.5304 62.0456 73.613 60.9999 73.0002C60.5256 72.7221 55.5137 72.7235 54.9999 73.0002Z" fill="#404040"/>
</svg>
