<svg width="100" height="100" viewBox="0 0 100 100" fill="none" xmlns="http://www.w3.org/2000/svg">
<circle cx="50" cy="50" r="50" fill="#CEE19A"/>
<path d="M28 52H23C21.1188 52 19 53.1555 19 55V72C19 73.8445 21.1188 75 23 75H28C29.8812 75 31 73.8445 31 72V55C31 53.419 29.8812 52 28 52ZM28 72C28 72.9524 28.2687 73 28 73H23C22.7312 73 22 72.9524 22 72V55C22 54.4062 22.7313 54 23 54H27C27.2688 54 28 54.3163 28 55V72ZM44 49H39C37.1188 49 36 50.1555 36 52V73C36 74.8445 37.1188 76 39 76H44C45.8812 76 47 74.8445 47 73V52C47 50.419 45.8812 49 44 49ZM45 72C45 72.9679 44.2687 73 44 73H39C38.7312 73 38 72.9679 38 72V52C38 51.3924 38.7313 51 39 51H44C44.6582 51 45 51.758 45 52V72ZM60 46H55C53.1188 46 52 47.1555 52 49V73C52 74.8445 53.1188 76 55 76H60C61.8812 76 64 74.8445 64 73V49C64 47.1555 61.6125 46 60 46ZM61 73C61 73.2635 60.2687 74 60 74H55C54.7312 74 54 74.2045 54 73V49C54 48.7365 54.7313 48 55 48H60C60.2688 48 61 48.7365 61 49V73ZM77 43H72C70.1188 43 69 44.1555 69 46V73C69 74.8445 70.1188 76 72 76H77C78.8812 76 80 74.8445 80 73V46C80 44.419 78.6125 43 77 43ZM78 73C78 73.2635 77.2687 73 77 73H72C71.7312 73 71 73.2635 71 73V46C71 45.7365 71.7313 45 72 45H77C77.2688 45 78 45.7365 78 46V73ZM79 25C78.7312 25 78.7312 25 79 25H72C71.1938 25 71 25.2095 71 26C71 26.7905 71.1938 27 72 27H76C59.069 36.2224 39.3497 41.9461 20 43C19.1938 43 19 43.6774 19 44C19 45.276 19.1938 45 20 45C40.4248 43.946 60.2627 38.7493 78 29V31C78 31.7905 78.1938 33 79 33C79.8062 33 80 32.3919 80 32V26C80 25.473 79.8062 25 79 25Z" fill="#404040"/>
</svg>
