<svg width="100" height="100" viewBox="0 0 100 100" fill="none" xmlns="http://www.w3.org/2000/svg">
<circle cx="50" cy="50" r="50" fill="#CEE19A"/>
<path d="M32 63C35.5842 63 38 59.5842 38 56C38 52.4157 35.5842 50 32 50C28.4156 50 25 52.4157 25 56C25 59.584 28.4156 63 32 63ZM32 53C34.068 53 35 53.943 35 56C35 58.0584 34.068 60 32 60C29.932 60 28 58.0582 28 56C28.0001 53.943 29.932 53 32 53Z" fill="#404040"/>
<path d="M62 56C62 59.5842 64.4157 63 68 63C71.5843 63 75 59.5842 75 56C75 52.4157 71.5843 50 68 50C64.4157 50 62 52.4158 62 56ZM68 53C70.068 53 72 53.943 72 56C72 58.0584 70.068 60 68 60C65.932 60 65 58.0582 65 56C65 53.943 65.932 53 68 53Z" fill="#404040"/>
<path d="M49 30C52.584 30 56 27.5845 56 24C56 20.4155 52.5841 17 49 17C45.4159 17 43 20.4155 43 24C43 27.5845 45.4159 30 49 30ZM49 20C51.0684 20 53 21.9429 53 24C53 26.0571 51.0684 27 49 27C46.9321 27 46 26.0571 46 24C46 21.9429 46.9322 20 49 20Z" fill="#404040"/>
<path d="M75 67.0002C70.8143 64.7586 66.1909 64.7555 62 67.0002C61.2038 67.4272 59.241 67.7596 58 69.0002L51 59.0002V50.0002C55.1199 49.8624 59.0908 49.3365 63 48.0002C63.5616 47.8082 63.991 46.5926 64 46.0002C64 45.9934 64 46.0072 64 46.0002C64 43.2521 63.2975 37.3725 57 34.0002C52.8142 31.7586 47.1909 31.7555 43 34.0002C40.8674 35.1439 35.2007 38.2049 35 46.0002C34.9845 46.6005 35.4316 47.8055 36 48.0002C39.9106 49.3363 43.8807 49.8623 48 50.0002V59.0002L41 69.0002C40.1598 68.2155 39.1528 67.6176 38 67.0002C33.8142 64.7586 29.1909 64.7555 25 67.0002C22.8674 68.1439 17.2007 71.2049 17 79.0002C16.9845 79.6005 17.4316 80.8055 18 81.0002C22.3541 82.4881 26.3997 83.0002 31 83.0002C35.601 83.0002 40.6471 82.488 45 81.0002C45.5616 80.8082 45.991 79.5926 46 79.0002C46 78.9934 46 79.0072 46 79.0002C46 77.1956 45.1668 74.0925 43 71.0002L50 62.0002L57 71.0002C55.6645 72.9967 54.0877 75.5935 54 79.0002C53.9845 79.6005 54.4316 80.8055 55 81.0002C59.3543 82.488 64.3996 83.0002 69 83.0002C73.601 83.0002 77.6471 82.488 82 81.0002C82.5616 80.8082 82.991 79.5926 83 79.0002C83 78.9934 83 79.0072 83 79.0002C82.9998 76.2521 81.2973 70.3725 75 67.0002ZM44 36.0002C47.3765 34.1917 51.629 34.1942 55 36.0002C56.7177 36.9216 60.5868 39.8018 61 45.0002C53.482 47.3477 45.518 47.3505 38 45.0002C38.7141 39.2601 42.2837 36.9204 44 36.0002ZM20 78.0002C20.7142 72.26 24.2838 69.9204 26 69.0002C29.3765 67.1917 33.629 67.1942 37 69.0002C38.7177 69.9216 42.5868 72.8018 43 78.0002C35.482 80.3477 27.5181 80.3505 20 78.0002ZM57 78.0002C57.7142 72.26 61.2837 69.9204 63 69.0002C66.3765 67.1917 70.629 67.1942 74 69.0002C75.7177 69.9216 79.5868 72.8018 80 78.0002C72.4819 80.3477 64.518 80.3505 57 78.0002Z" fill="#404040"/>
</svg>
