<svg width="100" height="100" viewBox="0 0 100 100" fill="none" xmlns="http://www.w3.org/2000/svg">
<circle cx="50" cy="50" r="50" fill="#CEE19A"/>
<path d="M79.9999 58.9999C79.5026 57.6439 78.3484 56.4741 76.9999 55.9999C75.6525 55.5257 74.2216 55.2682 72.9999 55.9999L60.9999 62.9999L58.9999 63.9999H50.9999C50.8953 63.9999 51.0304 64.0487 50.9999 63.9999C50.9536 64.0932 50.9694 63.951 50.9999 63.9999C50.9438 64.0198 51.0263 63.9465 50.9999 63.9999L56.9999 60.9999C59.5075 60.1607 60.6721 57.4277 59.9999 54.9999C59.6472 53.7257 59.1675 53.619 57.9999 52.9999C56.8504 52.3902 55.2326 51.5887 53.9999 51.9999L47.9999 53.9999L29.9999 55.9999C28.8472 56.0764 27.8167 56.1865 26.9999 56.9999L16.9999 66.9999C15.1677 68.8243 15.3845 71.13 16.9999 72.9999C17.4269 73.4942 19.2415 75.3773 21.9999 77.9999C23.6075 79.5281 25.2791 81.2821 25.9999 81.9999C26.2207 82.2197 26.708 81.9999 26.9999 81.9999C27.257 81.9999 27.7884 82.1752 27.9999 81.9999L32.9999 76.9999C34.0997 76.0872 35.5685 75.9999 36.9999 75.9999H54.9999C55.65 75.9999 56.4024 76.2549 56.9999 75.9999L64.9999 71.9999C64.9772 72.0115 65.0236 71.9898 64.9999 71.9999C65.0228 71.9882 65.9781 72.0131 65.9999 71.9999L77.9999 64.9999C80.0255 63.7896 80.7757 61.115 79.9999 58.9999ZM75.9999 62.9999L63.9999 69.9999L55.9999 73.9999C55.6867 74.1336 55.3407 73.9999 54.9999 73.9999H36.9999C35.0381 73.9999 32.507 74.7492 30.9999 75.9999L26.9999 78.9999C26.1854 78.2123 25.1889 77.1301 23.9999 75.9999C22.0012 74.0997 19.3862 72.447 18.9999 71.9999C18.1691 71.0382 18.0196 68.976 18.9999 67.9999L28.9999 58.9999C29.4275 58.574 29.3963 58.04 29.9999 57.9999L47.9999 56.9999C47.9083 57.0303 48.0965 56.9935 47.9999 56.9999L54.9999 53.9999C55.261 53.9129 55.7339 53.9999 55.9999 53.9999C56.4021 53.9999 56.6325 54.8051 56.9999 54.9999C57.6116 55.3243 57.8146 55.3303 57.9999 55.9999C58.3463 57.2508 57.3463 58.553 55.9999 58.9999C55.9922 59.0024 56.0074 58.9971 55.9999 58.9999L49.9999 60.9999C49.3848 61.2188 49.2885 62.4161 48.9999 62.9999C48.6163 63.7766 48.5406 64.2651 48.9999 64.9999C49.4593 65.7346 50.1308 65.9999 50.9999 65.9999H59.9999C59.8587 66.0602 60.1538 65.9999 59.9999 65.9999L61.9999 64.9999C61.956 65.0261 62.0472 64.9798 61.9999 64.9999L73.9999 57.9999C74.6394 57.6166 75.2934 57.7516 75.9999 57.9999C76.7171 58.2522 77.7321 59.2697 77.9999 59.9999C78.3966 61.0808 77.0759 62.357 75.9999 62.9999Z" fill="#404040"/>
<path d="M60 31.9999H50C49.7348 31.9999 49.1875 32.1874 49 31.9999C48.8124 31.8124 49 31.2651 49 30.9999C49 30.7347 48.8124 30.1874 49 29.9999C49.1875 29.8124 49.7348 29.9999 50 29.9999H52V21.9999C51.9497 22.1213 51.9999 21.8686 52 21.9999C52.0502 21.8785 51.9071 21.0928 52 20.9999C52.0928 20.907 52.8786 21.0501 53 20.9999C52.8686 20.9998 53.1213 20.9497 53 20.9999H60C61.4587 20.9999 61.9685 21.9685 63 22.9999C64.0314 24.0314 65 25.5412 65 26.9999C65 28.4586 64.0314 28.9685 63 29.9999C61.9685 31.0314 61.4587 31.9999 60 31.9999ZM54 29.9999H60C60.9282 29.9999 61.3436 29.6563 62 28.9999C62.6564 28.3435 63 27.9282 63 26.9999C63 26.0717 62.6564 24.6563 62 23.9999C61.3436 23.3435 60.9282 22.9999 60 22.9999H54V29.9999Z" fill="#404040"/>
<path d="M53 38.9999C52.8686 38.9999 53.1213 39.0501 53 38.9999C52.8786 38.9496 52.0928 39.0927 52 38.9999C51.9071 38.907 52.0502 38.1212 52 37.9999C51.9497 37.8785 51.9999 38.1312 52 37.9999V29.9999C52 29.7346 51.8124 29.1874 52 28.9999C52.1875 28.8123 52.7348 28.9999 53 28.9999C53.2652 28.9999 53.8124 28.8123 54 28.9999C54.1875 29.1874 54 29.7346 54 29.9999V37.9999C54.0001 38.1312 54.0502 37.8785 54 37.9999C53.9497 38.1212 54.0928 38.907 54 38.9999C53.9071 39.0927 53.1213 38.9496 53 38.9999C53.1313 38.9999 52.8786 39.0501 53 38.9999Z" fill="#404040"/>
<path d="M59 35.9999H50C49.7348 35.9999 49.1875 36.1874 49 35.9999C48.8124 35.8123 49 35.2651 49 34.9999C49 34.7346 48.8124 34.1874 49 33.9999C49.1875 33.8123 49.7348 33.9999 50 33.9999H59C59.2652 33.9999 59.8124 33.8123 60 33.9999C60.1875 34.1874 60 34.7346 60 34.9999C60 35.2651 60.1875 35.8123 60 35.9999C59.8124 36.1874 59.2652 35.9999 59 35.9999Z" fill="#404040"/>
<path d="M57 48C66.9253 48 75 39.9253 75 30C75 20.0747 66.9253 12 57 12C47.0747 12 39 20.0747 39 30C39 39.9253 47.0747 48 57 48ZM57 14C65.6793 14 73 21.3205 73 30C73 38.6795 65.6793 46 57 46C48.3207 46 41 38.6795 41 30C41 21.3205 48.3207 14 57 14Z" fill="#404040"/>
</svg>
