<svg width="170" height="120" viewBox="0 0 170 120" fill="none" xmlns="http://www.w3.org/2000/svg">
<path d="M4 41H20V4C20 2.0793 21.0842 0 23 0H166C167.916 0 170 2.0793 170 4V100C170 101.921 167.916 104 166 104H107V113H115C116.916 113 119 114.079 119 116C119 117.921 116.916 120 115 120H72C70.0839 120 69 117.921 69 116C69 114.079 70.0839 113 72 113H80V104H60V116C60 117.921 58.9158 120 57 120H4C2.0842 120 0 117.921 0 116V45C0 43.079 2.0842 41 4 41ZM7 96H53V49H7V96ZM27 7V41H57C58.9158 41 60 43.079 60 45V70H163V7H27ZM87 113H101V104H87V113ZM163 96V77H60V96H163ZM53 113V104H7V113H53Z" fill="#7D7D7D"/>
<path d="M29 110C27.6193 110 27 109.381 27 108C27 106.619 27.6193 105 29 105C30.3807 105 32 106.619 32 108C32 109.381 30.3807 110 29 110Z" fill="#7D7D7D"/>
<path d="M94 90C92.3431 90 91 88.6569 91 87C91 85.3431 92.3431 84 94 84C95.6569 84 97 85.3431 97 87C97 88.6569 95.6569 90 94 90Z" fill="#7D7D7D"/>
</svg>
