<svg width="100" height="100" viewBox="0 0 100 100" fill="none" xmlns="http://www.w3.org/2000/svg">
<circle cx="50" cy="50" r="50" fill="#CEE19A"/>
<path d="M63.0001 57C63.115 56.73 63.8576 57.1425 64.0001 57C64.3376 56.665 65.2326 56.2325 66.0001 56C67.2751 55.6125 68.2726 55.2575 69.0001 54C69.7176 52.76 69.2975 51.2875 69.0001 50C68.815 49.21 68.8701 48.4775 69.0001 48C69.1126 47.5625 69.4876 46.5449 70.0001 46C70.9226 45.0176 72.0001 44.485 72.0001 43C72.0001 41.515 70.9226 39.9825 70.0001 39C69.4876 38.455 69.115 37.435 69.0001 37C68.8726 36.5225 68.8175 35.79 69.0001 35C69.2976 33.7125 69.7176 32.2425 69.0001 31C68.2726 29.7425 67.2775 29.385 66.0001 29C65.2326 28.7675 64.3376 28.335 64.0001 28C63.6626 27.665 63.2326 26.7676 63.0001 26C62.6151 24.725 62.2575 23.7275 61.0001 23C59.7526 22.2775 58.2901 22.7 57.0001 23C56.2101 23.1825 55.4801 23.1275 55.0001 23C54.5626 22.8825 53.545 22.5125 53.0001 22C52.0176 21.0774 51.4851 20 50.0001 20C48.5175 20 46.9826 21.0775 46.0001 22C45.4526 22.5125 44.4377 22.8826 44.0001 23C43.5201 23.13 42.7876 23.1826 42.0001 23C40.7076 22.7 39.2425 22.2825 38.0001 23C36.7451 23.7275 36.385 24.7225 36.0001 26C35.7676 26.7675 35.3351 27.665 35.0001 28C34.6626 28.335 33.7675 28.7675 33.0001 29C31.7251 29.3875 30.7276 29.7425 30.0001 31C29.2825 32.24 29.7027 33.7125 30.0001 35C30.1851 35.79 30.13 36.5225 30.0001 37C29.8876 37.4375 29.5125 38.4551 29.0001 39C28.0777 39.9825 27.0001 41.5175 27.0001 43C27.0001 44.4825 28.0776 45.0175 29.0001 46C29.5125 46.545 29.8851 47.565 30.0001 48C30.1276 48.4775 30.1827 49.21 30.0001 50C29.7025 51.2875 29.2825 52.7575 30.0001 54C30.7276 55.2575 31.7226 55.615 33.0001 56C33.7675 56.2325 34.6626 56.665 35.0001 57C35.1426 57.1425 35.885 56.73 36.0001 57L27.0001 78C26.8 78.4825 26.6202 79.6449 27.0001 80C27.2376 80.22 27.69 80 28.0001 80C28.19 80 28.8201 80.0925 29.0001 80L38.0001 75L45.0001 80C45.3175 80.21 45.6375 80.1125 46.0001 80C46.3625 79.8825 46.8675 79.3575 47.0001 79L50.0001 72L52.0001 79C52.1251 79.37 52.6326 79.8725 53.0001 80C53.3676 80.125 53.6751 80.2175 54.0001 80L61.0001 75L70.0001 80C70.1801 80.09 70.81 80 71.0001 80C71.31 80 71.7651 80.2175 72.0001 80C72.3801 79.645 72.2001 78.4826 72.0001 78L63.0001 57ZM48.0001 68L45.0001 77L39.0001 73C38.6226 72.7525 38.3976 72.7975 38.0001 73L31.0001 76L37.0001 61C37.3001 61.51 37.4575 61.685 38.0001 62C39.2475 62.7225 40.7127 62.3 42.0001 62C42.7876 61.8175 43.5176 61.8676 44.0001 62C44.4375 62.1175 45.4552 62.4875 46.0001 63C46.3526 63.33 46.605 63.6925 47.0001 64C46.9851 63.9525 47.01 64.0475 47.0001 64L48.0001 68C48.0177 67.9525 47.9778 68.0451 48.0001 68ZM49.0001 63C48.5075 63 48.6451 61.605 48.0001 61C47.2051 60.25 46.045 59.28 45.0001 59C44.6626 58.91 44.3426 59 44.0001 59C43.2426 59 42.7476 59.8275 42.0001 60C41.2 60.1875 39.385 60.2276 39.0001 60C38.5975 59.7675 39.2525 58.8325 39.0001 58C38.68 56.9375 37.7825 55.78 37.0001 55C36.2201 54.22 35.0626 53.32 34.0001 53C33.1676 52.75 32.235 53.4025 32.0001 53C31.7775 52.6125 31.815 50.7975 32.0001 50C32.2526 48.91 33.2875 48.0826 33.0001 47C32.7175 45.955 31.7475 44.7975 31.0001 44C30.3926 43.355 29.0001 43.4925 29.0001 43C29.0001 42.5075 30.3952 41.645 31.0001 41C31.7476 40.205 32.7201 39.045 33.0001 38C33.2875 36.92 32.2526 36.09 32.0001 35C31.815 34.2025 31.7777 33.3851 32.0001 33C32.235 32.5975 33.1651 32.2524 34.0001 32C35.0626 31.68 36.2176 30.78 37.0001 30C37.7776 29.2225 38.6776 28.0601 39.0001 27C39.2526 26.1675 38.6001 25.2325 39.0001 25C39.3925 24.78 41.2075 24.815 42.0001 25C43.0851 25.2525 43.9126 26.29 45.0001 26C46.045 25.72 47.2025 24.7474 48.0001 24C48.6426 23.395 48.5075 23 49.0001 23C49.4926 23 50.3551 23.395 51.0001 24C51.7951 24.75 52.9551 25.72 54.0001 26C55.0851 26.29 55.9176 25.2525 57.0001 25C57.7975 24.8125 58.6151 24.775 59.0001 25C59.4026 25.2325 59.7477 26.1675 60.0001 27C60.3201 28.0625 61.2176 29.22 62.0001 30C62.7801 30.78 63.9375 31.68 65.0001 32C65.8326 32.25 66.7651 32.5975 67.0001 33C67.2226 33.3875 67.1851 34.2025 67.0001 35C66.7475 36.09 65.7126 36.9174 66.0001 38C66.2826 39.045 67.2527 40.2025 68.0001 41C68.6076 41.645 69.0001 42.5075 69.0001 43C69.0001 43.4925 68.605 43.355 68.0001 44C67.2525 44.795 66.28 45.955 66.0001 47C65.7126 48.08 66.7475 48.91 67.0001 50C67.1851 50.7975 67.2225 52.6149 67.0001 53C66.7651 53.4025 65.835 52.7476 65.0001 53C63.9375 53.32 62.7825 54.22 62.0001 55C61.2225 55.7775 60.3226 56.9399 60.0001 58C59.7475 58.8325 59.4 59.7675 59.0001 60C58.6151 60.2225 57.7951 60.185 57.0001 60C55.915 59.7475 55.0876 58.71 54.0001 59C52.9551 59.28 51.7977 60.2526 51.0001 61C50.3575 61.6049 49.4926 63 49.0001 63ZM61.0001 73C60.6001 72.7975 60.3726 72.75 60.0001 73L54.0001 77L50.0001 65C51.2501 64.81 52.125 63.8225 53.0001 63C53.5476 62.4875 54.5625 62.1174 55.0001 62C55.4825 61.8725 56.2126 61.8174 57.0001 62C58.2925 62.3 59.7577 62.7175 61.0001 62C61.5401 61.6875 61.7001 61.51 62.0001 61L68.0001 76L61.0001 73Z" fill="#404040"/>
<path d="M65 43C65 34.7275 58.2725 28 50 28C41.7275 28 35 34.7275 35 43C35 51.2725 41.7275 58 50 58C58.2725 58 65 51.2725 65 43ZM50 56C43.1075 56 37 49.8925 37 43C37 36.1075 43.1075 30 50 30C56.8925 30 63 36.1075 63 43C63 49.8925 56.8925 56 50 56Z" fill="#404040"/>
</svg>
