<svg width="100" height="100" viewBox="0 0 100 100" fill="none" xmlns="http://www.w3.org/2000/svg">
<circle cx="50" cy="50" r="50" fill="#CEE19A"/>
<path d="M50 57H51C53.4393 57 55 59.5583 55 62V74C55 76.4417 53.4393 78 51 78H45C42.5607 78 41 76.4417 41 74V62C41 59.5583 42.5607 57 45 57H47C47.3901 53.6313 49.5589 51.3827 53 51L69 49C71.2367 48.7512 73 47.2527 73 45V38C73 35.5583 71.4393 34 69 34C68.1869 34 67 32.8139 67 32C67 31.1861 68.1869 31 69 31C73.0654 31 76 33.9305 76 38V45C76 48.7546 72.7279 51.5854 69 52L53 54C51.0532 54.2165 50.365 55.1393 50 57ZM45 60C44.1869 60 44 61.1861 44 62V74C44 74.8139 44.1869 75 45 75H51C51.8131 75 52 74.8139 52 74V62C52 61.1861 51.8131 60 51 60H45ZM30 22H63C67.0654 22 70 24.9305 70 29V35C70 39.0695 67.0654 43 63 43H30C25.9346 43 23 39.0695 23 35V29C23 24.9305 25.9346 22 30 22ZM30 25C27.5607 25 26 26.5583 26 29V35C26 37.4417 27.5607 40 30 40H63C65.4393 40 67 37.4417 67 35V29C67 26.5583 65.4393 25 63 25H30Z" fill="#404040"/>
</svg>
