<svg width="100" height="100" viewBox="0 0 100 100" fill="none" xmlns="http://www.w3.org/2000/svg">
<circle cx="50" cy="50" r="50" fill="#CEE19A"/>
<path d="M54 26.9999C68.4385 27.4459 80 38.5162 80 52.9999C80 67.7968 67.7966 79.9999 53 79.9999C38.5052 79.9999 27.4298 68.4517 27 53.9999C26.9778 53.2506 25.7492 52.9776 25 52.9999C24.2508 53.0221 23.9778 53.2506 24 53.9999C24.4734 69.9177 37.0365 82.9999 53 82.9999C69.2957 82.9999 83 69.296 83 52.9999C83 37.0486 69.9032 24.4911 54 23.9999C53.2509 23.9767 53.0232 24.2507 53 24.9999C52.9768 25.749 53.2509 26.9767 54 26.9999Z" fill="#404040"/>
<path d="M20 47H47V20C32.1112 20.6896 20.6896 32.1112 20 47ZM17 49C17 31.5258 31.5258 17 49 17C49.7514 17 50 17.2486 50 18V49C50 49.7514 49.7514 50 49 50H18C17.2486 50 17 49.7514 17 49Z" fill="#404040"/>
<path d="M52 25V53C52 53.3745 52.3662 53 52 53H25C24.2584 53 24 54.2416 24 55C24 55.7584 24.2584 56 25 56H52C53.8493 56 55 54.8912 55 53V25C55 24.2416 54.7416 24 54 24C53.2584 24 52 24.2416 52 25Z" fill="#404040"/>
</svg>
