<svg width="126" height="36" viewBox="0 0 126 36" fill="none" xmlns="http://www.w3.org/2000/svg">
<path d="M0 31.9106H2.1854V25.6496L23.7503 9.50262L41.8848 22.4202L23.8994 6.42236L0 24.6878V31.9106Z" fill="#F2C20E"/>
<path d="M28.3062 8.52246L36.2808 2.26149L52.0473 15.6022L49.3749 15.6387L49.4236 30.1725H28.7658V19.6899C28.6319 19.4799 27.1039 17.0449 24.1485 16.8653C23.0896 16.8116 22.036 17.0459 21.0997 17.5432C20.1633 18.0406 19.3793 18.7825 18.8311 19.6899V31.9105H51.3747V17.3006H54.9997V15.0665L50.5772 10.9574V5.17435H45.3511V7.41149L36.3204 0L26.9274 7.11929L28.3062 8.52246Z" fill="#61BD4F"/>
<path d="M68.5801 11.8095V10.5735H72.9121V11.8095H68.5801ZM69.6721 6.9375C70.2881 6.9375 70.8561 7.0455 71.3761 7.2615C71.8961 7.4695 72.3481 7.7695 72.7321 8.1615C73.1241 8.5455 73.4241 9.0015 73.6321 9.5295C73.8481 10.0575 73.9561 10.6335 73.9561 11.2575C73.9561 11.8815 73.8481 12.4575 73.6321 12.9855C73.4241 13.5135 73.1241 13.9735 72.7321 14.3655C72.3481 14.7495 71.8961 15.0495 71.3761 15.2655C70.8561 15.4735 70.2881 15.5775 69.6721 15.5775C68.9601 15.5775 68.3121 15.4575 67.7281 15.2175C67.1521 14.9775 66.6721 14.6295 66.2881 14.1735L67.2721 13.2135C67.5841 13.5495 67.9321 13.8015 68.3161 13.9695C68.7081 14.1295 69.1321 14.2095 69.5881 14.2095C69.9881 14.2095 70.3601 14.1375 70.7041 13.9935C71.0481 13.8415 71.3441 13.6375 71.5921 13.3815C71.8401 13.1175 72.0321 12.8055 72.1681 12.4455C72.3041 12.0855 72.3721 11.6895 72.3721 11.2575C72.3721 10.8255 72.3041 10.4295 72.1681 10.0695C72.0321 9.7095 71.8401 9.4015 71.5921 9.1455C71.3441 8.8815 71.0481 8.6775 70.7041 8.5335C70.3601 8.3815 69.9881 8.3055 69.5881 8.3055C69.1321 8.3055 68.7081 8.3895 68.3161 8.5575C67.9321 8.7175 67.5841 8.9655 67.2721 9.3015L66.2881 8.3415C66.6721 7.8855 67.1521 7.5375 67.7281 7.2975C68.3121 7.0575 68.9601 6.9375 69.6721 6.9375ZM81.2516 15.4575L78.4076 11.3655L79.6676 10.5855L83.0156 15.4575H81.2516ZM75.6956 15.4575V7.0575H77.2316V15.4575H75.6956ZM76.7636 11.9175V10.5735H79.5956V11.9175H76.7636ZM79.8116 11.4375L78.3836 11.2455L81.2516 7.0575H82.9076L79.8116 11.4375ZM87.9151 15.5775C87.2751 15.5775 86.6791 15.4735 86.1271 15.2655C85.5831 15.0495 85.1071 14.7495 84.6991 14.3655C84.2991 13.9735 83.9871 13.5135 83.7631 12.9855C83.5391 12.4575 83.4271 11.8815 83.4271 11.2575C83.4271 10.6335 83.5391 10.0575 83.7631 9.5295C83.9871 9.0015 84.3031 8.5455 84.7111 8.1615C85.1191 7.7695 85.5951 7.4695 86.1391 7.2615C86.6831 7.0455 87.2791 6.9375 87.9271 6.9375C88.6151 6.9375 89.2431 7.0575 89.8111 7.2975C90.3791 7.5295 90.8591 7.8775 91.2511 8.3415L90.2431 9.2895C89.9391 8.9615 89.5991 8.7175 89.2231 8.5575C88.8471 8.3895 88.4391 8.3055 87.9991 8.3055C87.5591 8.3055 87.1551 8.3775 86.7871 8.5215C86.4271 8.6655 86.1111 8.8695 85.8391 9.1335C85.5751 9.3975 85.3671 9.7095 85.2151 10.0695C85.0711 10.4295 84.9991 10.8255 84.9991 11.2575C84.9991 11.6895 85.0711 12.0855 85.2151 12.4455C85.3671 12.8055 85.5751 13.1175 85.8391 13.3815C86.1111 13.6455 86.4271 13.8495 86.7871 13.9935C87.1551 14.1375 87.5591 14.2095 87.9991 14.2095C88.4391 14.2095 88.8471 14.1295 89.2231 13.9695C89.5991 13.8015 89.9391 13.5495 90.2431 13.2135L91.2511 14.1735C90.8591 14.6295 90.3791 14.9775 89.8111 15.2175C89.2431 15.4575 88.6111 15.5775 87.9151 15.5775ZM92.7115 15.4575V7.0575H100.139V15.4575H98.6035V7.9935L98.9635 8.3775H93.8875L94.2475 7.9935V15.4575H92.7115ZM103.948 10.5495H108.124V11.8335H103.948V10.5495ZM104.068 14.1495H108.808V15.4575H102.508V7.0575H108.64V8.3655H104.068V14.1495ZM110.547 15.4575V7.0575H114.003C114.747 7.0575 115.383 7.1775 115.911 7.4175C116.447 7.6575 116.859 8.0015 117.147 8.4495C117.435 8.8975 117.579 9.4295 117.579 10.0455C117.579 10.6615 117.435 11.1935 117.147 11.6415C116.859 12.0895 116.447 12.4335 115.911 12.6735C115.383 12.9135 114.747 13.0335 114.003 13.0335H111.411L112.107 12.3015V15.4575H110.547ZM112.107 12.4695L111.411 11.7135H113.931C114.619 11.7135 115.135 11.5695 115.479 11.2815C115.831 10.9855 116.007 10.5735 116.007 10.0455C116.007 9.5095 115.831 9.0975 115.479 8.8095C115.135 8.5215 114.619 8.3775 113.931 8.3775H111.411L112.107 7.6095V12.4695ZM120.573 15.4575V7.9935L120.945 8.3775H117.801V7.0575H124.905V8.3775H121.761L122.121 7.9935V15.4575H120.573Z" fill="#404040"/>
<path d="M67.0781 30.4575V22.7575H70.2461C70.9281 22.7575 71.5111 22.8675 71.9951 23.0875C72.4864 23.3075 72.8641 23.6229 73.1281 24.0335C73.3921 24.4442 73.5241 24.9319 73.5241 25.4965C73.5241 26.0612 73.3921 26.5489 73.1281 26.9595C72.8641 27.3702 72.4864 27.6855 71.9951 27.9055C71.5111 28.1255 70.9281 28.2355 70.2461 28.2355H67.8701L68.5081 27.5645V30.4575H67.0781ZM68.5081 27.7185L67.8701 27.0255H70.1801C70.8108 27.0255 71.2838 26.8935 71.5991 26.6295C71.9218 26.3582 72.0831 25.9805 72.0831 25.4965C72.0831 25.0052 71.9218 24.6275 71.5991 24.3635C71.2838 24.0995 70.8108 23.9675 70.1801 23.9675H67.8701L68.5081 23.2635V27.7185ZM76.1969 25.9585H80.0249V27.1355H76.1969V25.9585ZM76.3069 29.2585H80.6519V30.4575H74.8769V22.7575H80.4979V23.9565H76.3069V29.2585ZM82.2571 30.4575V22.7575H83.4231L86.8001 28.3785H86.1731L89.4951 22.7575H90.6611L90.6831 30.4575H89.3191L89.3081 24.8805H89.5941L86.7781 29.5775H86.1401L83.2801 24.8805H83.6101V30.4575H82.2571ZM96.4129 30.5675C95.8115 30.5675 95.2579 30.4685 94.7519 30.2705C94.2459 30.0725 93.8059 29.7975 93.4319 29.4455C93.0579 29.0862 92.7682 28.6682 92.5629 28.1915C92.3575 27.7075 92.2549 27.1795 92.2549 26.6075C92.2549 26.0355 92.3575 25.5112 92.5629 25.0345C92.7682 24.5505 93.0579 24.1325 93.4319 23.7805C93.8059 23.4212 94.2459 23.1425 94.7519 22.9445C95.2579 22.7465 95.8079 22.6475 96.4019 22.6475C97.0032 22.6475 97.5532 22.7465 98.0519 22.9445C98.5579 23.1425 98.9979 23.4212 99.3719 23.7805C99.7459 24.1325 100.035 24.5505 100.241 25.0345C100.446 25.5112 100.549 26.0355 100.549 26.6075C100.549 27.1795 100.446 27.7075 100.241 28.1915C100.035 28.6755 99.7459 29.0935 99.3719 29.4455C98.9979 29.7975 98.5579 30.0725 98.0519 30.2705C97.5532 30.4685 97.0069 30.5675 96.4129 30.5675ZM96.4019 29.3135C96.7905 29.3135 97.1499 29.2475 97.4799 29.1155C97.8099 28.9835 98.0959 28.7965 98.3379 28.5545C98.5799 28.3052 98.7669 28.0192 98.8989 27.6965C99.0382 27.3665 99.1079 27.0035 99.1079 26.6075C99.1079 26.2115 99.0382 25.8522 98.8989 25.5295C98.7669 25.1995 98.5799 24.9135 98.3379 24.6715C98.0959 24.4222 97.8099 24.2315 97.4799 24.0995C97.1499 23.9675 96.7905 23.9015 96.4019 23.9015C96.0132 23.9015 95.6539 23.9675 95.3239 24.0995C95.0012 24.2315 94.7152 24.4222 94.4659 24.6715C94.2239 24.9135 94.0332 25.1995 93.8939 25.5295C93.7619 25.8522 93.6959 26.2115 93.6959 26.6075C93.6959 26.9962 93.7619 27.3555 93.8939 27.6855C94.0332 28.0155 94.2239 28.3052 94.4659 28.5545C94.7079 28.7965 94.9939 28.9835 95.3239 29.1155C95.6539 29.2475 96.0132 29.3135 96.4019 29.3135ZM107.542 22.7575H108.972V30.4575H107.542V22.7575ZM103.56 30.4575H102.13V22.7575H103.56V30.4575ZM107.652 27.1575H103.439V25.9365H107.652V27.1575ZM112.749 30.4575V23.6155L113.09 23.9675H110.208V22.7575H116.72V23.9675H113.838L114.168 23.6155V30.4575H112.749ZM116.587 30.4575L120.052 22.7575H121.46L124.936 30.4575H123.44L120.459 23.5165H121.031L118.061 30.4575H116.587ZM118.182 28.6755L118.567 27.5535H122.725L123.11 28.6755H118.182Z" fill="#404040"/>
<path d="M66 18.75H126" stroke="#9DC436" stroke-width="0.5"/>
</svg>
