<svg width="22" height="22" viewBox="0 0 22 22" fill="none" xmlns="http://www.w3.org/2000/svg">
<path fill-rule="evenodd" clip-rule="evenodd" d="M9.25374 16.8093C4.92937 16.8093 1.42382 13.365 1.42382 9.10938C1.42382 4.85375 4.92937 1.40253 9.25374 1.40253C13.5781 1.40253 17.0844 4.85375 17.0844 9.10938C17.0844 13.365 13.5781 16.8093 9.25374 16.8093ZM21.7855 20.7969L16.1074 15.2075C17.5938 13.5919 18.5075 11.4606 18.5075 9.10938C18.5075 4.07687 14.3646 0 9.25374 0C4.14287 0 0 4.07687 0 9.10938C0 14.135 4.14287 18.2119 9.25374 18.2119C11.462 18.2119 13.4874 17.4488 15.0783 16.1769L20.779 21.7868C21.0574 22.0618 21.5077 22.0618 21.7855 21.7868C22.0639 21.5187 22.0639 21.0719 21.7855 20.7969Z" fill="#9DC436"/>
</svg>
