<svg width="21" height="21" viewBox="0 0 21 21" fill="none" xmlns="http://www.w3.org/2000/svg">
<path fill-rule="evenodd" clip-rule="evenodd" d="M0 10.5C0 4.70101 4.70101 0 10.5 0C16.2989 0 21 4.70101 21 10.5C21 16.2989 16.2989 21 10.5 21C4.70101 21 0 16.2989 0 10.5ZM14.3925 7.65753C14.8025 8.06759 14.8025 8.73243 14.3925 9.14245L10.5255 13.0094C9.93153 13.6034 8.96847 13.6034 8.37446 13.0094L6.60753 11.2425C6.19749 10.8324 6.19749 10.1676 6.60753 9.75754C7.01759 9.34752 7.68241 9.34752 8.09247 9.75754L9.45 11.1151L12.9075 7.65753C13.3176 7.24749 13.9824 7.24749 14.3925 7.65753Z" fill="#9DC436"/>
</svg>
