<svg width="14" height="12" viewBox="0 0 14 12" fill="none" xmlns="http://www.w3.org/2000/svg">
<path d="M4.6976 11.5C4.61703 11.497 4.53787 11.4757 4.46496 11.4375C4.39205 11.3993 4.32693 11.3449 4.2736 11.2777L0.273593 6.8317C0.197321 6.77675 0.133289 6.7033 0.0863206 6.61678C0.0393525 6.53026 0.0106725 6.43307 0.00245645 6.33241C-0.00575956 6.23184 0.00669654 6.13047 0.0388886 6.03595C0.0710727 5.94152 0.122153 5.85633 0.188273 5.78707C0.254385 5.71771 0.333809 5.66596 0.420537 5.63581C0.507274 5.60558 0.599042 5.59766 0.68893 5.6126C0.778826 5.62754 0.864474 5.66507 0.939426 5.72224C1.01438 5.77933 1.07667 5.85473 1.12159 5.9425L4.6976 9.89055L13.0736 0.60732C13.1864 0.526056 13.3204 0.489226 13.4543 0.502733C13.5881 0.516231 13.714 0.579293 13.8118 0.6818C13.9095 0.784307 13.9735 0.920319 13.9934 1.06805C14.0133 1.21578 13.988 1.36666 13.9216 1.49652L5.1216 11.2777C5.06827 11.3449 5.00315 11.3993 4.93024 11.4375C4.85733 11.4757 4.77817 11.497 4.6976 11.5Z" fill="#9DC436"/>
</svg>
