<svg width="60" height="60" viewBox="0 0 60 60" fill="none" xmlns="http://www.w3.org/2000/svg">
<path d="M37.5311 26.1806C38.21 25.394 38.144 24.1873 37.3834 23.4851C36.6228 22.7828 35.4557 22.8511 34.7766 23.6376L27.3627 32.2245L25.2234 29.7467C24.5442 28.9602 23.3772 28.892 22.6166 29.594C21.856 30.2963 21.79 31.5031 22.4691 32.2896L25.9855 36.3624C26.3358 36.7681 26.8367 37 27.3627 37C27.8885 37 28.3894 36.7681 28.7397 36.3624L37.5311 26.1806Z" fill="#9DC436"/>
<path fill-rule="evenodd" clip-rule="evenodd" d="M30.5 3C28.1442 3 25.8948 3.77002 22.2665 5.01212L20.4385 5.63756C16.7162 6.91111 13.8435 7.89396 11.7871 8.729C10.7512 9.14962 9.86062 9.55703 9.14349 9.97331C8.45337 10.3739 7.76103 10.8736 7.29066 11.5434C6.82571 12.2055 6.58531 13.0195 6.43424 13.8031C6.27719 14.6177 6.18248 15.5949 6.12137 16.7169C6 18.9447 6 21.9967 6 25.9553V29.9784C6 45.3018 17.5792 52.6486 24.465 55.6553L24.5331 55.6849C25.387 56.0579 26.1895 56.4083 27.1117 56.6444C28.0854 56.8935 29.1197 57 30.5 57C31.8803 57 32.9146 56.8935 33.8883 56.6444C34.8105 56.4083 35.6131 56.0579 36.4667 55.6849L36.535 55.6553C43.4209 52.6486 55 45.3018 55 29.9784V25.9558C55 21.997 55 18.9448 54.8786 16.7169C54.8176 15.5949 54.7228 14.6177 54.5658 13.8031C54.4148 13.0195 54.1743 12.2055 53.7094 11.5434C53.239 10.8736 52.5467 10.3739 51.8565 9.97331C51.1393 9.55703 50.2488 9.14962 49.213 8.729C47.1565 7.89396 44.2838 6.91111 40.5613 5.63754L38.7335 5.01212C35.1052 3.77002 32.8558 3 30.5 3ZM23.1641 8.68708C27.221 7.299 28.8473 6.76744 30.5 6.76744C32.1527 6.76744 33.779 7.299 37.8359 8.68708L39.2753 9.17953C43.0762 10.48 45.8481 11.4291 47.7942 12.2194C48.7657 12.6139 49.4695 12.9444 49.9636 13.2312C50.2076 13.3728 50.3757 13.4896 50.4877 13.5808C50.583 13.6581 50.6191 13.7018 50.6244 13.7083C50.6292 13.7161 50.6606 13.7683 50.7046 13.8918C50.7548 14.0327 50.8104 14.2347 50.8647 14.516C50.9745 15.0852 51.0576 15.8671 51.1149 16.9218C51.23 19.0345 51.2308 21.9837 51.2308 26.0233V29.9784C51.2308 42.9763 41.5064 49.3734 35.0261 52.2028C34.0926 52.6104 33.5536 52.841 32.9535 52.9945C32.3803 53.1411 31.681 53.2326 30.5 53.2326C29.319 53.2326 28.6197 53.1411 28.0465 52.9945C27.4464 52.841 26.9074 52.6104 25.9739 52.2028C19.4936 49.3734 9.76923 42.9763 9.76923 29.9784V26.0233C9.76923 21.9837 9.76993 19.0345 9.88502 16.9218C9.94246 15.8671 10.0256 15.0852 10.1354 14.516C10.1896 14.2347 10.2453 14.0327 10.2955 13.8918C10.3395 13.7684 10.3707 13.7162 10.3755 13.7083C10.3808 13.7019 10.417 13.6581 10.5122 13.5808C10.6244 13.4896 10.7925 13.3728 11.0364 13.2312C11.5305 12.9444 12.2343 12.6139 13.2057 12.2194C15.1519 11.4291 17.9239 10.48 21.7247 9.17953L23.1641 8.68708Z" fill="#9DC436"/>
</svg>
