<svg width="60" height="60" viewBox="0 0 60 60" fill="none" xmlns="http://www.w3.org/2000/svg">
<path fill-rule="evenodd" clip-rule="evenodd" d="M23 23C23 19.134 26.134 16 30 16C33.866 16 37 19.134 37 23C37 26.866 33.866 30 30 30C26.134 30 23 26.866 23 23ZM30 19.8182C28.2426 19.8182 26.8182 21.2427 26.8182 23C26.8182 24.7573 28.2426 26.1818 30 26.1818C31.7574 26.1818 33.1818 24.7573 33.1818 23C33.1818 21.2427 31.7574 19.8182 30 19.8182Z" fill="#9DC436"/>
<path fill-rule="evenodd" clip-rule="evenodd" d="M30 31C26.9792 31 24.1509 31.6127 22.0076 32.6927C19.9776 33.7155 18.0007 35.4815 18.0007 38L18.0003 38.1591C17.9965 39.458 17.99 41.6456 20.0475 43.1464C21.0022 43.8426 22.2621 44.2868 23.8227 44.5698C25.3978 44.8554 27.4163 45 30 45C32.5838 45 34.6022 44.8554 36.1773 44.5698C37.738 44.2868 38.9978 43.8426 39.9527 43.1464C42.01 41.6456 42.0037 39.458 41.9996 38.1591L41.9994 38C41.9994 35.4815 40.0224 33.7155 37.9924 32.6927C35.8491 31.6127 33.0208 31 30 31ZM21.7899 38C21.7899 37.7068 22.075 36.9276 23.7022 36.1077C25.2162 35.3451 27.44 34.8182 30 34.8182C32.5601 34.8182 34.7839 35.3451 36.2978 36.1077C37.9249 36.9276 38.2101 37.7068 38.2101 38C38.2101 39.5387 38.1129 39.7747 37.7306 40.0534C37.4224 40.2782 36.7876 40.5796 35.5063 40.812C34.2395 41.0416 32.4686 41.1818 30 41.1818C27.5314 41.1818 25.7606 41.0416 24.4937 40.812C23.2124 40.5796 22.5777 40.2782 22.2693 40.0534C21.8872 39.7747 21.7899 39.5387 21.7899 38Z" fill="#9DC436"/>
<path fill-rule="evenodd" clip-rule="evenodd" d="M22.2665 5.01212C25.8948 3.77002 28.1442 3 30.5 3C32.8558 3 35.1052 3.77002 38.7335 5.01212L40.5613 5.63754C44.2838 6.91111 47.1565 7.89396 49.213 8.729C50.2488 9.14962 51.1393 9.55703 51.8565 9.97331C52.5467 10.3739 53.239 10.8736 53.7094 11.5434C54.1743 12.2055 54.4148 13.0195 54.5658 13.8031C54.7228 14.6177 54.8176 15.5949 54.8786 16.7169C55 18.9448 55 21.997 55 25.9558V29.9784C55 45.3018 43.4209 52.6486 36.535 55.6553L36.4669 55.6849C35.6131 56.0579 34.8105 56.4083 33.8883 56.6444C32.9146 56.8935 31.8803 57 30.5 57C29.1197 57 28.0854 56.8935 27.1117 56.6444C26.1895 56.4083 25.387 56.0579 24.5331 55.6849L24.465 55.6553C17.5792 52.6486 6 45.3018 6 29.9784V25.956C6 21.9974 6 18.9447 6.12137 16.7169C6.18248 15.5949 6.27719 14.6177 6.43424 13.8031C6.58531 13.0195 6.82571 12.2055 7.29066 11.5434C7.76103 10.8736 8.45337 10.3739 9.14349 9.97331C9.86062 9.55703 10.7512 9.14962 11.7871 8.729C13.8435 7.89396 16.7162 6.91111 20.4385 5.63756L22.2665 5.01212ZM30.5 6.76744C28.8473 6.76744 27.221 7.299 23.1641 8.68708L21.7247 9.17953C17.9239 10.48 15.1519 11.4291 13.2057 12.2194C12.2343 12.6139 11.5305 12.9444 11.0364 13.2312C10.7925 13.3728 10.6244 13.4896 10.5122 13.5808C10.417 13.6581 10.3808 13.7019 10.3755 13.7083C10.3707 13.7162 10.3395 13.7684 10.2955 13.8918C10.2453 14.0327 10.1896 14.2347 10.1354 14.516C10.0256 15.0852 9.94246 15.8671 9.88502 16.9218C9.76993 19.0345 9.76923 21.9837 9.76923 26.0233V29.9784C9.76923 42.9763 19.4936 49.3734 25.9739 52.2028C26.9074 52.6104 27.4464 52.841 28.0465 52.9945C28.6197 53.1411 29.319 53.2326 30.5 53.2326C31.681 53.2326 32.3803 53.1411 32.9535 52.9945C33.5536 52.841 34.0926 52.6104 35.0261 52.2028C41.5064 49.3734 51.2308 42.9763 51.2308 29.9784V26.0233C51.2308 21.9837 51.23 19.0345 51.1149 16.9218C51.0576 15.8671 50.9745 15.0852 50.8647 14.516C50.8104 14.2347 50.7548 14.0327 50.7046 13.8918C50.6606 13.7683 50.6292 13.7161 50.6244 13.7083C50.6191 13.7018 50.583 13.6581 50.4877 13.5808C50.3757 13.4896 50.2076 13.3728 49.9636 13.2312C49.4695 12.9444 48.7657 12.6139 47.7942 12.2194C45.8481 11.4291 43.0762 10.48 39.2753 9.17953L37.8359 8.68708C33.779 7.299 32.1527 6.76744 30.5 6.76744Z" fill="#9DC436"/>
</svg>
